<svg width="263" height="96" viewBox="0 0 263 96" fill="none" xmlns="http://www.w3.org/2000/svg">
<path d="M126.492 41.358L115.637 13.2304L104.783 41.358L98.2062 41.358L112.23 5.86181L119.044 5.86181L133.069 41.358L126.492 41.358Z" fill="#57E1A7"/>
<path d="M39.7722 75.867V78.8802H8.13323V33.0267H38.7896V36.0399H11.474V54.1193H35.9074V57.067H11.474V75.867H39.7722ZM50.9045 30.2754H54.1797V78.8802H50.9045V30.2754ZM96.8722 62.5695H67.4604C67.5477 65.2333 68.2246 67.6134 69.4911 69.7095C70.7575 71.762 72.4606 73.356 74.6005 74.4914C76.784 75.6268 79.2295 76.1945 81.937 76.1945C84.1642 76.1945 86.2167 75.8015 88.0945 75.0154C90.016 74.1857 91.61 72.9848 92.8764 71.4127L94.776 73.5743C93.2913 75.3648 91.4134 76.7404 89.1426 77.7012C86.9154 78.6619 84.4917 79.1423 81.8715 79.1423C78.4653 79.1423 75.4302 78.3999 72.7663 76.9151C70.1024 75.4303 68.0063 73.3778 66.4778 70.7576C64.993 68.1374 64.2507 65.146 64.2507 61.7834C64.2507 58.4645 64.9494 55.4949 66.3468 52.8747C67.7879 50.2108 69.7531 48.1365 72.2423 46.6517C74.7315 45.1669 77.5264 44.4246 80.6269 44.4246C83.7275 44.4246 86.5006 45.1669 88.9461 46.6517C91.4353 48.0928 93.3786 50.1235 94.776 52.7437C96.2172 55.3639 96.9377 58.3335 96.9377 61.6524L96.8722 62.5695ZM80.6269 47.3068C78.2251 47.3068 76.0634 47.8527 74.1419 48.9444C72.2204 49.9925 70.6702 51.4991 69.4911 53.4643C68.3556 55.3857 67.7006 57.5692 67.5259 60.0148H93.728C93.597 57.5692 92.9419 55.3857 91.7628 53.4643C90.5837 51.5428 89.0334 50.0362 87.1119 48.9444C85.1905 47.8527 83.0288 47.3068 80.6269 47.3068ZM133.877 44.6866L118.418 78.8802H115.077L99.6833 44.6866H103.155L116.78 75.2775L130.536 44.6866H133.877ZM151.543 44.4246C155.779 44.4246 159.033 45.5163 161.304 47.6998C163.575 49.8396 164.71 53.0057 164.71 57.1981V78.8802H161.566V72.7883C160.474 74.7971 158.88 76.3692 156.784 77.5046C154.688 78.5964 152.177 79.1423 149.251 79.1423C145.451 79.1423 142.438 78.247 140.211 76.4566C138.028 74.6661 136.936 72.3079 136.936 69.382C136.936 66.5434 137.94 64.2508 139.949 62.504C142.001 60.7135 145.255 59.8183 149.709 59.8183H161.435V57.067C161.435 53.8791 160.561 51.4554 158.814 49.796C157.111 48.1365 154.6 47.3068 151.281 47.3068C149.011 47.3068 146.827 47.6998 144.731 48.4859C142.678 49.2719 140.932 50.32 139.49 51.6301L137.853 49.2719C139.556 47.7435 141.608 46.5644 144.01 45.7347C146.412 44.8613 148.923 44.4246 151.543 44.4246ZM149.709 76.4566C152.548 76.4566 154.95 75.8015 156.915 74.4914C158.924 73.1813 160.43 71.2817 161.435 68.7925V62.373H149.775C146.412 62.373 143.967 62.9843 142.438 64.2071C140.953 65.4299 140.211 67.1112 140.211 69.251C140.211 71.4782 141.041 73.2468 142.7 74.5569C144.36 75.8233 146.696 76.4566 149.709 76.4566ZM195.17 76.7186C194.341 77.5046 193.293 78.116 192.026 78.5527C190.803 78.9458 189.515 79.1423 188.161 79.1423C185.192 79.1423 182.899 78.3344 181.283 76.7186C179.667 75.0591 178.86 72.7664 178.86 69.8405V47.5033H172.571V44.6866H178.86V37.219H182.135V44.6866H193.009V47.5033H182.135V69.513C182.135 71.7402 182.659 73.4433 183.707 74.6224C184.799 75.7578 186.393 76.3255 188.489 76.3255C190.629 76.3255 192.397 75.6923 193.795 74.4259L195.17 76.7186ZM216.452 79.1423C213.22 79.1423 210.294 78.3999 207.674 76.9151C205.098 75.4303 203.067 73.3778 201.582 70.7576C200.097 68.0937 199.355 65.1023 199.355 61.7834C199.355 58.4645 200.097 55.4949 201.582 52.8747C203.067 50.2108 205.098 48.1365 207.674 46.6517C210.294 45.1669 213.22 44.4246 216.452 44.4246C219.683 44.4246 222.587 45.1669 225.164 46.6517C227.784 48.1365 229.837 50.2108 231.321 52.8747C232.806 55.4949 233.549 58.4645 233.549 61.7834C233.549 65.1023 232.806 68.0937 231.321 70.7576C229.837 73.3778 227.784 75.4303 225.164 76.9151C222.587 78.3999 219.683 79.1423 216.452 79.1423ZM216.452 76.1945C219.072 76.1945 221.408 75.5832 223.461 74.3604C225.557 73.1376 227.195 71.4345 228.374 69.251C229.597 67.0675 230.208 64.5783 230.208 61.7834C230.208 58.9885 229.597 56.4993 228.374 54.3158C227.195 52.1323 225.557 50.4292 223.461 49.2064C221.408 47.9837 219.072 47.3723 216.452 47.3723C213.832 47.3723 211.473 47.9837 209.377 49.2064C207.325 50.4292 205.687 52.1323 204.464 54.3158C203.285 56.4993 202.696 58.9885 202.696 61.7834C202.696 64.5783 203.285 67.0675 204.464 69.251C205.687 71.4345 207.325 73.1376 209.377 74.3604C211.473 75.5832 213.832 76.1945 216.452 76.1945ZM246.854 52.1542C247.902 49.665 249.54 47.7653 251.767 46.4552C253.994 45.1014 256.701 44.4246 259.889 44.4246V47.6343L259.103 47.5688C255.304 47.5688 252.334 48.7697 250.195 51.1716C248.055 53.5298 246.985 56.8269 246.985 61.0629V78.8802H243.71V44.6866H246.854V52.1542Z" fill="white"/>
</svg>
