<svg width="589" height="212" viewBox="0 0 589 212" fill="none" xmlns="http://www.w3.org/2000/svg">
<path d="M284.935 92.1614L260.934 29.9692L236.933 92.1614L222.392 92.1614L253.401 13.6766L268.467 13.6766L299.475 92.1614L284.935 92.1614Z" fill="#57E1A7"/>
<path d="M91.92 168.932V175.594H21.9638V74.2083H89.7474V80.8708H29.3505V120.846H83.3746V127.363H29.3505V168.932H91.92ZM116.534 68.1251H123.776V175.594H116.534V68.1251ZM218.172 139.53H153.141C153.334 145.42 154.83 150.682 157.631 155.317C160.431 159.855 164.197 163.379 168.928 165.89C173.756 168.4 179.163 169.656 185.15 169.656C190.074 169.656 194.612 168.787 198.764 167.049C203.013 165.214 206.537 162.559 209.337 159.083L213.538 163.862C210.255 167.821 206.103 170.863 201.082 172.987C196.157 175.111 190.798 176.173 185.005 176.173C177.473 176.173 170.763 174.532 164.872 171.249C158.982 167.966 154.348 163.428 150.968 157.634C147.685 151.841 146.044 145.227 146.044 137.792C146.044 130.453 147.589 123.887 150.678 118.094C153.865 112.204 158.21 107.617 163.714 104.334C169.218 101.051 175.397 99.4099 182.253 99.4099C189.108 99.4099 195.24 101.051 200.647 104.334C206.151 107.521 210.448 112.011 213.538 117.804C216.724 123.598 218.317 130.164 218.317 137.502L218.172 139.53ZM182.253 105.783C176.942 105.783 172.163 106.99 167.914 109.404C163.665 111.721 160.238 115.052 157.631 119.397C155.12 123.646 153.672 128.474 153.286 133.881H211.22C210.931 128.474 209.482 123.646 206.875 119.397C204.268 115.149 200.84 111.818 196.592 109.404C192.343 106.99 187.564 105.783 182.253 105.783ZM299.993 99.9892L265.811 175.594H258.425L224.388 99.9892H232.064L262.19 167.628L292.606 99.9892H299.993ZM339.055 99.4099C348.421 99.4099 355.614 101.824 360.635 106.652C365.656 111.383 368.167 118.384 368.167 127.653V175.594H361.215V162.124C358.801 166.566 355.276 170.042 350.641 172.552C346.007 174.966 340.455 176.173 333.985 176.173C325.585 176.173 318.922 174.194 313.998 170.235C309.17 166.276 306.756 161.062 306.756 154.593C306.756 148.316 308.977 143.247 313.418 139.385C317.957 135.426 325.15 133.447 334.999 133.447H360.925V127.363C360.925 120.315 358.994 114.956 355.131 111.287C351.366 107.617 345.814 105.783 338.475 105.783C333.454 105.783 328.626 106.652 323.992 108.39C319.453 110.128 315.591 112.445 312.405 115.342L308.784 110.128C312.549 106.748 317.088 104.141 322.398 102.307C327.709 100.375 333.261 99.4099 339.055 99.4099ZM334.999 170.235C341.275 170.235 346.586 168.787 350.931 165.89C355.373 162.993 358.704 158.793 360.925 153.289V139.095H335.144C327.709 139.095 322.302 140.447 318.922 143.151C315.639 145.854 313.998 149.572 313.998 154.303C313.998 159.227 315.832 163.138 319.502 166.035C323.171 168.835 328.337 170.235 334.999 170.235ZM435.517 170.814C433.682 172.552 431.365 173.904 428.565 174.87C425.861 175.739 423.013 176.173 420.019 176.173C413.454 176.173 408.384 174.387 404.812 170.814C401.239 167.145 399.453 162.076 399.453 155.607V106.217H385.548V99.9892H399.453V83.4779H406.694V99.9892H430.737V106.217H406.694V154.882C406.694 159.807 407.853 163.573 410.171 166.18C412.584 168.69 416.109 169.945 420.744 169.945C425.475 169.945 429.386 168.545 432.475 165.745L435.517 170.814ZM482.572 176.173C475.427 176.173 468.957 174.532 463.164 171.249C457.467 167.966 452.977 163.428 449.694 157.634C446.411 151.744 444.77 145.13 444.77 137.792C444.77 130.453 446.411 123.887 449.694 118.094C452.977 112.204 457.467 107.617 463.164 104.334C468.957 101.051 475.427 99.4099 482.572 99.4099C489.717 99.4099 496.138 101.051 501.835 104.334C507.629 107.617 512.167 112.204 515.45 118.094C518.733 123.887 520.374 130.453 520.374 137.792C520.374 145.13 518.733 151.744 515.45 157.634C512.167 163.428 507.629 167.966 501.835 171.249C496.138 174.532 489.717 176.173 482.572 176.173ZM482.572 169.656C488.365 169.656 493.531 168.304 498.07 165.6C502.704 162.897 506.325 159.131 508.932 154.303C511.636 149.475 512.988 143.971 512.988 137.792C512.988 131.612 511.636 126.108 508.932 121.28C506.325 116.452 502.704 112.687 498.07 109.983C493.531 107.279 488.365 105.928 482.572 105.928C476.779 105.928 471.564 107.279 466.93 109.983C462.391 112.687 458.77 116.452 456.067 121.28C453.46 126.108 452.156 131.612 452.156 137.792C452.156 143.971 453.46 149.475 456.067 154.303C458.77 159.131 462.391 162.897 466.93 165.6C471.564 168.304 476.779 169.656 482.572 169.656ZM549.793 116.501C552.111 110.997 555.732 106.797 560.656 103.9C565.58 100.907 571.567 99.4099 578.616 99.4099V106.507L576.878 106.362C568.477 106.362 561.911 109.017 557.18 114.328C552.449 119.542 550.083 126.832 550.083 136.198V175.594H542.841V99.9892H549.793V116.501Z" fill="#484848"/>
</svg>
